<svg width="53" height="39" viewBox="0 0 53 39" fill="none" xmlns="http://www.w3.org/2000/svg">
<g clip-path="url(#clip0_258_225)">
<path fill-rule="evenodd" clip-rule="evenodd" d="M52.9922 12.248H36.5956L17.1035 31.4332L21.6989 36.0474C24.457 38.8171 28.894 38.8014 31.6339 36.013L51.3939 15.8997C52.3911 14.8849 52.9239 13.5766 52.9922 12.248Z" fill="#4AA7FF"/>
<path d="M12.6187 26.6792L2.30918 16.7922C1.05542 15.6328 0 13.9812 0 12.248H36.9337L24.1888 24.5006L12.6187 26.6792Z" fill="#1A7BFF"/>
<path fill-rule="evenodd" clip-rule="evenodd" d="M0.00904143 12.2525H38.4239L29.9063 0H14.9661C11.4348 0 8.04813 1.42787 5.55112 3.96948L1.60581 7.98527C0.454504 9.15715 -0.0772828 10.7197 0.00904143 12.2525Z" fill="#379FFF"/>
<path fill-rule="evenodd" clip-rule="evenodd" d="M23.9766 0L36.5953 12.2525H52.9921C53.0705 10.7279 52.538 9.17674 51.3938 8.0122L47.4218 3.96948C44.925 1.42786 41.5383 0 38.007 0H23.9766Z" fill="#66CFFF"/>
<path fill-rule="evenodd" clip-rule="evenodd" d="M52.9922 12.248H36.5956L17.1035 31.4332L21.6989 36.0474C24.457 38.8171 28.894 38.8014 31.6339 36.013L51.3939 15.8997C52.3911 14.8849 52.9239 13.5766 52.9922 12.248Z" fill="#4AA7FF"/>
<path d="M12.6187 26.6792L2.30918 16.7922C1.05542 15.6328 0 13.9812 0 12.248H36.9337L24.1888 24.5006L12.6187 26.6792Z" fill="#1A7BFF"/>
<path fill-rule="evenodd" clip-rule="evenodd" d="M0.00904143 12.2525H38.4239L29.9063 0H14.9661C11.4348 0 8.04813 1.42787 5.55112 3.96948L1.60581 7.98527C0.454504 9.15715 -0.0772828 10.7197 0.00904143 12.2525Z" fill="#379FFF"/>
<path fill-rule="evenodd" clip-rule="evenodd" d="M23.9766 0L36.5953 12.2525H52.9921C53.0705 10.7279 52.538 9.17674 51.3938 8.0122L47.4218 3.96948C44.925 1.42786 41.5383 0 38.007 0H23.9766Z" fill="#66CFFF"/>
</g>
<defs>
<clipPath id="clip0_258_225">
<rect width="53" height="39" fill="white"/>
</clipPath>
</defs>
</svg>
